<svg width="1000" height="268" viewBox="0 0 1000 268" fill="none" xmlns="http://www.w3.org/2000/svg">
<path d="M956.892 83.3499V100.2H996.468V115.554H956.892V147.857H936.221V68.0955H999.896V83.3499H956.892Z" fill="#1D1D1D"/>
<path d="M752.051 147.857L735.431 119.442H722.551V147.857H701.672V68.0955H739.067C741.456 68.0955 743.741 68.0955 746.13 68.1952C749.87 68.3946 763.062 69.1922 769.502 80.5583C770.645 82.7517 772.826 87.338 772.826 93.9184C772.826 102.792 769.19 107.578 766.386 110.17C765.243 111.267 763.789 112.363 762.542 113.061C760.984 113.859 759.218 114.656 755.79 115.853L774.903 147.658H752.051V147.857ZM740.105 82.9511H722.447V104.587H739.586C740.417 104.587 742.806 104.587 745.091 103.789C751.843 101.595 752.051 95.5136 752.051 93.5196C752.051 83.1505 743.741 82.9511 740.105 82.9511Z" fill="#1D1D1D"/>
<path fill-rule="evenodd" clip-rule="evenodd" d="M500.05 268L345 0H655L500.05 268ZM519.164 147.859L515.009 135.097H484.886L480.731 147.859H458.605L489.456 68.1968H510.335L541.186 147.859H519.164ZM499.948 87.1402L489.768 120.74H510.127L499.948 87.1402Z" fill="#1D1D1D"/>
<path d="M304.456 147.859H283.058L268.1 96.8112L253.038 147.859H231.64L210.554 68.1967H231.329L243.586 123.033L258.648 68.1967H277.137L292.615 123.033L304.768 68.1967H325.439L304.456 147.859Z" fill="#1D1D1D"/>
<path d="M64.8177 136.192C62.117 139.084 55.9884 144.268 45.9125 146.561C41.3421 147.558 37.291 147.758 32.6166 147.758H0V68.0955H26.488C29.0849 68.0955 31.5779 68.0955 33.967 68.1952C37.4987 68.3946 51.314 68.7934 61.4937 76.7696C63.0518 77.8663 65.4409 80.0597 68.0378 83.9481C70.9463 88.335 74.2703 95.4139 74.2703 107.179C74.2703 122.334 69.2843 131.207 64.8177 136.192ZM48.821 91.5255C47.6784 90.1297 45.1854 87.4377 40.7188 86.1416C36.8755 84.9452 33.3437 85.0449 29.2926 85.0449H20.9827V131.905H27.319C33.4476 131.905 40.5111 131.606 45.9125 127.717C50.1714 124.627 53.5993 118.944 53.5993 108.076C53.4954 101.895 52.7683 96.3112 48.821 91.5255Z" fill="#1D1D1D"/>
</svg>
