 <svg
          width="174"
          height="49"
          viewBox="0 0 749 210"
          fill="none"
          xmlns="http://www.w3.org/2000/svg"
        >
          <path
            d="M716.069 65.6741V78.8066H745.676V90.7735H716.069V115.951H700.605V53.8626H748.318V65.7518H716.069V65.6741Z"
            fill="white"
          ></path>
          <path
            d="M562.807 115.951L550.374 93.8041H540.738V115.951H525.119V53.8626H553.094C554.881 53.8626 556.591 53.8626 558.378 53.9403C561.175 54.0957 571.044 54.7174 575.862 63.576C576.717 65.2856 578.349 68.8601 578.349 73.9888C578.349 80.9047 575.629 84.6346 573.531 86.655C572.676 87.5098 571.588 88.3646 570.656 88.9085C569.49 89.5302 568.169 90.1518 565.605 91.0843L579.903 115.873H562.807V115.951ZM553.871 65.3633H540.661V82.2257H553.482C554.104 82.2257 555.891 82.2257 557.601 81.604C562.652 79.8945 562.807 75.1544 562.807 73.6002C562.807 65.5187 556.591 65.3633 553.871 65.3633Z"
            fill="white"
            data-v-5d0432e1=""
          ></path>
          <path
            fill-rule="evenodd"
            clip-rule="evenodd"
            d="M373.786 209.314L252.575 0.739624H494.919L373.786 209.314ZM388.58 115.951L385.472 106.005H363.015L359.907 115.951H343.355L366.434 53.8635H382.053L405.132 115.951H388.58ZM374.205 68.6279L366.589 94.8152H381.82L374.205 68.6279Z"
            fill="white"
            data-v-5d0432e1=""
          ></path>
          <path
            d="M227.989 115.951H211.981L200.791 76.1646L189.524 115.951H173.516L157.819 53.8626H173.361L182.53 96.6015L193.798 53.8626H207.63L219.208 96.6015L228.3 53.8626H243.763L227.989 115.951Z"
            fill="white"
            data-v-5d0432e1=""
          ></path>
          <path
            d="M48.707 107.54C46.6866 109.794 42.1019 113.835 34.5643 115.622C31.1452 116.399 28.1146 116.554 24.6178 116.554H0.217773V54.5442H20.0331C21.9758 54.5442 23.8407 54.5442 25.628 54.6219C28.27 54.7773 38.6051 55.0881 46.2204 61.3047C47.386 62.1595 49.1733 63.869 51.1159 66.8996C53.2917 70.3187 55.7784 75.8359 55.7784 85.0054C55.7784 96.7392 52.0484 103.655 48.707 107.54ZM36.7401 72.7277C35.8853 71.6398 34.0204 69.5417 30.679 68.5315C27.8038 67.599 25.1618 67.6767 22.1312 67.6767H15.9146V104.199H20.6547C25.2395 104.199 30.5236 103.966 34.5643 100.935C37.7503 98.5264 40.3147 94.0971 40.3147 85.627C40.2369 80.8092 39.693 76.4576 36.7401 72.7277Z"
            fill="white"
            data-v-5d0432e1=""
          ></path>
        </svg>
